<svg width="42" height="41" viewBox="0 0 42 41" fill="none" xmlns="http://www.w3.org/2000/svg">
<path d="M33.2759 29.7531C33.9188 30.1706 34.5505 30.5804 35.2218 31.0152C32.3644 35.0104 28.743 37.8033 24.0455 39.0075C18.7864 40.3546 13.7599 39.6569 9.17408 36.7287C-0.595231 30.4895 -2.36717 18.4268 2.92974 9.97649C6.27884 4.63418 11.1484 1.56872 17.3681 0.876773C22.0712 0.352978 28.6446 1.83738 33.2797 6.98449C33.3459 6.11858 33.4083 5.29907 33.4763 4.41383C34.2309 4.46602 34.976 4.51821 35.7778 4.57426C35.6189 6.797 35.4639 8.99269 35.3031 11.2309C33.0943 11.0685 30.9196 10.9081 28.7184 10.7477C28.7732 9.97069 28.8262 9.24395 28.881 8.46889C29.8076 8.53461 30.7135 8.60032 31.6874 8.66991C31.5777 8.53461 31.5077 8.4399 31.4264 8.35486C30.0251 6.86079 28.4328 5.62185 26.5871 4.77527C21.311 2.35538 16.0898 2.44816 10.9763 5.28554C7.16197 7.40197 4.66953 10.653 3.20016 14.7969C2.02391 18.1117 1.93692 21.469 2.91461 24.7954C4.17407 29.0766 6.60978 32.5673 10.4354 34.8422C15.3919 37.7878 20.5811 38.1802 25.9196 35.9362C28.8867 34.6895 31.2297 32.6601 33.0849 30.0082C33.1416 29.9271 33.204 29.8498 33.2759 29.7531Z" fill="#FF9000"/>
<path d="M5.18008 26.2222V24.5888L9.38008 20.6222C9.71193 20.3214 9.95564 20.0518 10.1112 19.8133C10.2667 19.5748 10.3705 19.357 10.4223 19.1599C10.4845 18.9629 10.5156 18.7814 10.5156 18.6155C10.5156 18.1799 10.3653 17.8481 10.0645 17.6199C9.77416 17.3814 9.34379 17.2622 8.77341 17.2622C8.31712 17.2622 7.89193 17.3503 7.49786 17.5266C7.11416 17.7029 6.78749 17.9777 6.51786 18.3511L4.6823 17.1688C5.09712 16.5466 5.67786 16.054 6.42453 15.6911C7.17119 15.3281 8.03193 15.1466 9.00675 15.1466C9.81564 15.1466 10.5208 15.2814 11.1223 15.5511C11.7342 15.8103 12.206 16.1785 12.5379 16.6555C12.8801 17.1325 13.0512 17.7029 13.0512 18.3666C13.0512 18.7192 13.0045 19.0718 12.9112 19.4244C12.8282 19.7666 12.6519 20.1296 12.3823 20.5133C12.123 20.897 11.7393 21.3274 11.2312 21.8044L7.74675 25.0866L7.26453 24.1688H13.409V26.2222H5.18008ZM14.1572 23.9355V22.2399L19.2906 15.3333H21.935L16.9106 22.2399L15.6817 21.8822H24.2528V23.9355H14.1572ZM20.0217 26.2222V23.9355L20.0994 21.8822V19.8444H22.4794V26.2222H20.0217ZM24.2511 27.7777L29.3844 13.1244H31.5466L26.4133 27.7777H24.2511ZM33.296 26.2222L37.6827 16.2977L38.336 17.3866H32.4716L33.5916 16.2044V19.1599H31.3516V15.3333H40.0782V16.9666L36.0338 26.2222H33.296Z" fill="#FF9000"/>
</svg>
