<svg width="23" height="25" viewBox="0 0 23 25" fill="none" xmlns="http://www.w3.org/2000/svg">
<path d="M21.3916 18.627C21.805 18.8954 22.211 19.1588 22.6426 19.4384C20.8057 22.0067 18.4776 23.8022 15.4578 24.5763C12.077 25.4423 8.84568 24.9938 5.89762 23.1113C-0.382648 19.1004 -1.52175 11.3458 1.8834 5.9135C4.0364 2.47916 7.16681 0.508508 11.1652 0.0636832C14.1887 -0.273042 18.4144 0.68122 21.3941 3.99007C21.4366 3.43342 21.4767 2.90659 21.5205 2.33751C22.0056 2.37106 22.4845 2.4046 23 2.44064C22.8979 3.86954 22.7982 5.28106 22.6949 6.7199C21.2749 6.61553 19.8769 6.5124 18.4618 6.40927C18.4971 5.90978 18.5311 5.44258 18.5664 4.94433C19.1621 4.98658 19.7444 5.02882 20.3705 5.07355C20.2999 4.98658 20.255 4.92569 20.2027 4.87102C19.3019 3.91055 18.2782 3.11409 17.0917 2.56986C13.6999 1.01422 10.3434 1.07386 7.05618 2.89789C4.60413 4.25846 3.00184 6.34839 2.05725 9.01237C1.30109 11.1433 1.24517 13.3016 1.87368 15.44C2.68333 18.1922 4.24914 20.4362 6.70849 21.8986C9.89482 23.7922 13.2307 24.0445 16.6626 22.6019C18.57 21.8005 20.0763 20.4958 21.2689 18.7911C21.3053 18.7389 21.3454 18.6892 21.3916 18.627Z" fill="white"/>
</svg>
