<svg width="31" height="36" viewBox="0 0 31 36" fill="none" xmlns="http://www.w3.org/2000/svg">
<path d="M26.2773 21.1094L27.9111 16.8301C28.1846 16.1123 27.6582 15.3467 26.8857 15.3467H23.9326C24.0352 14.8135 24.0967 14.2666 24.0967 13.7061C24.0967 13.2139 24.0352 12.7354 23.9463 12.2637C26.7148 11.5938 28.4717 10.6094 28.4717 9.51562C28.4717 8.3877 26.626 7.38281 23.7344 6.71289C23.126 4.41602 21.8613 2.07129 20.9111 0.875C20.4805 0.328125 19.8379 0.0341797 19.1816 0.0341797C18.5322 0.0341797 18.3408 0.198242 16.3242 1.20996C15.4492 1.64746 14.6631 1.35352 14.3691 1.20996C12.332 0.191406 12.1543 0.0341797 11.5117 0.0341797C10.8555 0.0341797 10.2197 0.328125 9.78906 0.868164C8.83887 2.06445 7.57422 4.40918 6.96582 6.70605C4.06738 7.37598 2.22168 8.3877 2.22168 9.51562C2.22168 10.6162 3.97852 11.6006 6.74707 12.2637C6.6582 12.7354 6.59668 13.2139 6.59668 13.7061C6.59668 14.2666 6.6582 14.8135 6.76074 15.3467H3.88281C3.09668 15.3467 2.57031 16.1465 2.87793 16.8711L4.6416 20.9863C1.90039 22.5791 0.0341797 25.5117 0.0341797 28.9092V31.9717C0.0341797 33.6602 1.4082 35.0342 3.09668 35.0342H27.5967C29.2852 35.0342 30.6592 33.6602 30.6592 31.9717V28.9092C30.6592 25.6006 28.8955 22.7295 26.2773 21.1094ZM8.78418 13.7061C8.78418 13.5215 8.80469 13.3438 8.8252 13.166C8.91406 13.2207 9.17383 13.3916 9.22168 13.5352C9.48828 14.3486 9.7002 15.2168 10.3496 15.8184C10.8965 16.3242 13.5625 17.5342 14.7246 14.1094C14.916 13.5352 15.7773 13.5352 15.9756 14.1094C17.0693 17.3496 19.6602 16.4609 20.3506 15.8184C21 15.2168 21.2188 14.3486 21.4785 13.5352C21.5264 13.3916 21.7793 13.2207 21.875 13.166C21.8955 13.3438 21.916 13.5215 21.916 13.7061C21.916 17.3223 18.9697 20.2686 15.3535 20.2686C11.7373 20.2686 8.78418 17.3223 8.78418 13.7061ZM8.73633 8.54492C8.78418 8.36035 9.57715 4.64844 11.5049 2.22168C13.4668 3.20605 14.082 3.62305 15.3467 3.62305C16.6182 3.62305 17.2402 3.19238 19.1885 2.22168L19.1953 2.22852C21.1162 4.64844 21.9092 8.35352 21.957 8.54492C23.4199 8.87988 24.4043 9.08496 25.4434 9.51562C23.7822 10.1924 20.2891 10.9717 15.3467 10.9717C10.4043 10.9717 6.91113 10.1924 5.25 9.51562C6.28906 9.08496 7.29395 8.87988 8.73633 8.54492ZM3.09668 32.8467C2.61133 32.8467 2.22168 32.457 2.22168 31.9717V28.9092C2.22168 26.4141 3.53418 24.1582 5.73535 22.8799L7.41699 21.9092L5.54395 17.5342H7.51953C7.84082 18.1904 11.915 24.9512 11.915 24.9512L9.80273 32.8467H3.09668ZM12.0654 32.8467L14.2529 24.6436L12.7559 22.0186C13.583 22.2783 14.4375 22.4561 15.3467 22.4561C16.2559 22.4561 17.1172 22.2783 17.9375 22.0186L16.4404 24.6436L18.6279 32.8467H12.0654ZM28.4717 31.9717C28.4717 32.457 28.082 32.8467 27.5967 32.8467H20.8906L18.7852 24.9512C18.7852 24.9512 22.8594 18.1904 23.1807 17.5342H25.2998L23.5908 22.0186L25.1289 22.9688C27.2207 24.2607 28.4717 26.4824 28.4717 28.9092V31.9717Z" fill="#FF9000" stroke="#FF9000" stroke-width="0.0683594"/>
</svg>
