<svg width="40" height="31" viewBox="0 0 40 31" fill="none" xmlns="http://www.w3.org/2000/svg">
<path d="M36.1211 0.0341797H3.32227C1.50391 0.0341797 0.0341797 1.50391 0.0341797 3.31543V27.3779C0.0341797 29.1895 1.50391 30.6592 3.32227 30.6592H36.1211C37.9395 30.6592 39.4092 29.1895 39.4092 27.3779V3.31543C39.4092 1.50391 37.9395 0.0341797 36.1211 0.0341797ZM3.73242 3.31543H35.7109C35.9365 3.31543 36.1211 3.5 36.1211 3.72559V6.59668H3.32227V3.72559C3.32227 3.5 3.50684 3.31543 3.73242 3.31543ZM35.7109 27.3779H3.73242C3.50684 27.3779 3.32227 27.1934 3.32227 26.9678V15.3467H36.1211V26.9678C36.1211 27.1934 35.9365 27.3779 35.7109 27.3779ZM13.1592 20.542V23.2764C13.1592 23.7275 12.79 24.0967 12.3389 24.0967H7.41699C6.96582 24.0967 6.59668 23.7275 6.59668 23.2764V20.542C6.59668 20.0908 6.96582 19.7217 7.41699 19.7217H12.3389C12.79 19.7217 13.1592 20.0908 13.1592 20.542ZM26.2842 20.542V23.2764C26.2842 23.7275 25.915 24.0967 25.4639 24.0967H16.167C15.7158 24.0967 15.3467 23.7275 15.3467 23.2764V20.542C15.3467 20.0908 15.7158 19.7217 16.167 19.7217H25.4639C25.915 19.7217 26.2842 20.0908 26.2842 20.542Z" fill="#FF9000" stroke="#FF9000" stroke-width="0.0683594"/>
</svg>
