<svg width="40" height="27" viewBox="0 0 40 27" fill="none" xmlns="http://www.w3.org/2000/svg">
<path d="M19.7216 15.3467C20.882 15.3467 21.9948 14.8857 22.8152 14.0653C23.6357 13.2448 24.0966 12.132 24.0966 10.9717C24.0966 9.81136 23.6357 8.69856 22.8152 7.87809C21.9948 7.05762 20.882 6.59668 19.7216 6.59668C19.6533 6.59668 19.5931 6.61309 19.5268 6.6165C19.7376 7.19709 19.7785 7.82577 19.6446 8.42876C19.5107 9.03175 19.2075 9.58403 18.7708 10.0208C18.334 10.4576 17.7817 10.7607 17.1787 10.8946C16.5757 11.0285 15.9471 10.9877 15.3665 10.7769C15.3665 10.8452 15.3466 10.9054 15.3466 10.9717C15.3466 11.5462 15.4598 12.1151 15.6797 12.6459C15.8995 13.1767 16.2218 13.659 16.628 14.0653C17.4485 14.8857 18.5613 15.3467 19.7216 15.3467ZM39.1713 12.1611C35.4641 4.92803 28.1251 0.0341797 19.7216 0.0341797C11.3182 0.0341797 3.97711 4.93145 0.272033 12.1618C0.115655 12.4711 0.0341797 12.8129 0.0341797 13.1595C0.0341797 13.5061 0.115655 13.8479 0.272033 14.1572C3.97916 21.3903 11.3182 26.2842 19.7216 26.2842C28.1251 26.2842 35.4662 21.3869 39.1713 14.1565C39.3276 13.8472 39.4091 13.5055 39.4091 13.1588C39.4091 12.8122 39.3276 12.4705 39.1713 12.1611ZM19.7216 2.22168C21.4522 2.22168 23.144 2.73486 24.5829 3.69632C26.0218 4.65778 27.1433 6.02435 27.8056 7.6232C28.4679 9.22205 28.6411 10.9814 28.3035 12.6787C27.9659 14.3761 27.1325 15.9352 25.9088 17.1589C24.6851 18.3826 23.126 19.2159 21.4287 19.5536C19.7313 19.8912 17.972 19.7179 16.3732 19.0556C14.7743 18.3934 13.4077 17.2718 12.4463 15.8329C11.4848 14.394 10.9716 12.7023 10.9716 10.9717C10.9742 8.65181 11.8969 6.42769 13.5373 4.78729C15.1777 3.1469 17.4018 2.22421 19.7216 2.22168ZM19.7216 24.0967C12.3826 24.0967 5.67653 19.9056 2.22164 13.1592C4.16471 9.34467 7.27208 6.24807 11.0933 4.31826C9.66666 6.16533 8.78414 8.454 8.78414 10.9717C8.78414 13.8725 9.93648 16.6545 11.9877 18.7057C14.0388 20.7568 16.8208 21.9092 19.7216 21.9092C22.6224 21.9092 25.4044 20.7568 27.4556 18.7057C29.5068 16.6545 30.6591 13.8725 30.6591 10.9717C30.6591 8.454 29.7766 6.16533 28.35 4.31826C32.1712 6.24807 35.2786 9.34467 37.2216 13.1592C33.7674 19.9056 27.0607 24.0967 19.7216 24.0967Z" fill="#FF9000" stroke="#FF9000" stroke-width="0.0683594"/>
</svg>
