<svg width="32" height="32" viewBox="0 0 32 32" fill="none" xmlns="http://www.w3.org/2000/svg">
<rect width="32" height="32" rx="4" fill="#27A6E5"/>
<path fill-rule="evenodd" clip-rule="evenodd" d="M7.32202 14.8662L17.6569 10.4149C22.5788 8.36701 23.6011 8.01135 24.2678 8.00019C24.4145 7.997 24.7415 8.03368 24.9552 8.20593C25.1338 8.35106 25.1833 8.54723 25.2072 8.68599C25.2311 8.82315 25.2598 9.13894 25.2375 9.38296C24.9711 12.1852 23.8164 18.9858 23.2295 22.1246C22.9807 23.4531 22.4927 23.8981 22.019 23.9412C20.9903 24.0353 20.2088 23.2617 19.212 22.6078L15.2566 19.9507C13.507 18.7976 14.641 18.1645 15.6378 17.1278C15.8994 16.8566 20.4337 12.7322 20.5214 12.3574C20.5325 12.3112 20.5421 12.1358 20.4384 12.0448C20.3348 11.9539 20.1817 11.9842 20.0716 12.0098C19.9153 12.0448 17.4241 13.6924 12.5963 16.9507C11.8898 17.4372 11.2487 17.6732 10.6745 17.6605C10.0413 17.6461 8.82441 17.3032 7.9201 17.0082C6.81006 16.6477 5.92808 16.4563 6.00463 15.8439C6.04451 15.5249 6.4847 15.198 7.32361 14.8646L7.32202 14.8662Z" fill="white"/>
</svg>
