<svg width="32" height="32" viewBox="0 0 32 32" fill="none" xmlns="http://www.w3.org/2000/svg">
<rect width="32" height="32" rx="4" fill="#00E676"/>
<path d="M24.4698 7.30622C22.3422 5.17225 19.5064 4 16.4953 4C10.2784 4 5.21777 9.05901 5.21777 15.2775C5.21777 17.2632 5.73611 19.2041 6.72175 20.9155L5.12207 26.7576L11.1013 25.1882C12.7473 26.0877 14.6005 26.5598 16.4905 26.5598H16.4953C22.7074 26.5598 27.878 21.5008 27.878 15.2823C27.878 12.2695 26.5973 9.44019 24.4698 7.30782V7.30622ZM16.4953 24.6587C14.8095 24.6587 13.1572 24.2073 11.7202 23.3525L11.3804 23.1499L7.83499 24.0797L8.77917 20.6204L8.55588 20.2648C7.61649 18.7719 7.12367 17.0494 7.12367 15.2759C7.12367 10.11 11.3294 5.90431 16.5001 5.90431C19.004 5.90431 21.3565 6.88038 23.1237 8.65231C24.8908 10.4258 25.9785 12.7767 25.9737 15.2807C25.9737 20.4514 21.6611 24.6571 16.4953 24.6571V24.6587ZM21.6356 17.638C21.3565 17.496 19.969 16.815 19.7106 16.7241C19.4522 16.6268 19.264 16.5821 19.0758 16.866C18.8876 17.1499 18.3501 17.7799 18.1811 17.9729C18.0184 18.1611 17.8509 18.1866 17.5718 18.0447C15.9163 17.2169 14.8286 16.5662 13.7361 14.6922C13.4458 14.1946 14.0264 14.2297 14.5639 13.1531C14.6548 12.9649 14.6101 12.8022 14.5383 12.6603C14.4666 12.5183 13.9036 11.1308 13.6691 10.5678C13.441 10.0191 13.2066 10.0957 13.0344 10.0845C12.8717 10.075 12.6835 10.075 12.4953 10.075C12.3071 10.075 12.0025 10.1467 11.7441 10.4258C11.4857 10.7097 10.7584 11.3907 10.7584 12.7783C10.7584 14.1659 11.7696 15.5056 11.9068 15.6938C12.0487 15.882 13.8924 18.7257 16.7218 19.9506C18.5096 20.7225 19.2114 20.7895 20.1045 20.6571C20.6484 20.5758 21.7712 19.9761 22.004 19.3158C22.2385 18.6555 22.2385 18.0909 22.1667 17.9745C22.1013 17.8469 21.9131 17.7767 21.634 17.6396L21.6356 17.638Z" fill="white"/>
</svg>
